<?xml version="1.0" encoding="UTF-8" standalone="no"?>
<!DOCTYPE svg PUBLIC "-//W3C//DTD SVG 1.1//EN" "http://www.w3.org/Graphics/SVG/1.1/DTD/svg11.dtd">
<svg width="183" height="183" viewBox="0 0 183 182" version="1.1" xmlns="http://www.w3.org/2000/svg" xmlns:xlink="http://www.w3.org/1999/xlink" xml:space="preserve" xmlns:serif="http://www.serif.com/" style="fill-rule:evenodd;clip-rule:evenodd;stroke-linejoin:round;stroke-miterlimit:2;">
    <path fill="#333333" d="M 91.659,0 C 41.122,0 0,40.902 0,91.167 c 0,49.931 40.567,90.596 90.63,91.152 V 91.255 L 60.635,91.246 c -8.92,0 -16.173,7.216 -16.173,16.089 0,8.875 7.252,16.077 16.173,16.077 v 19.877 c -19.937,0 -36.145,-16.135 -36.145,-35.954 0,-19.823 16.208,-35.958 36.145,-35.958 l 29.996,0.006 V 61.326 c 0,-16.499 13.491,-29.919 30.08,-29.919 16.593,0 30.09,13.421 30.09,29.919 0,16.491 -13.497,29.927 -30.09,29.927 h -10.104 v 89.117 c 41.479,-8.712 72.717,-45.39 72.717,-89.204 C 183.324,40.902 142.199,0 91.659,0 Z"/>
    <path fill="#333333" d="m 130.822,61.326 c 0,-5.546 -4.535,-10.056 -10.11,-10.056 -5.574,0 -10.104,4.51 -10.104,10.056 v 10.057 h 10.104 c 5.575,-10e-4 10.11,-4.516 10.11,-10.057 z" />
</svg>